SplineFontDB: 3.0
FontName: CMSY5
FullName: CMSY5
FamilyName: Computer Modern
Weight: Medium
Copyright: Copyright (c) 1997, 2009 American Mathematical Society (<http://www.ams.org>), with Reserved Font Name CMSY5.
Version: 003.002
ItalicAngle: -14.04
UnderlinePosition: -100
UnderlineWidth: 50
Ascent: 800
Descent: 200
LayerCount: 2
Layer: 0 0 "+gMyXYgAA"  1
Layer: 1 0 "+Uk2XYgAA"  0
NeedsXUIDChange: 1
UniqueID: 5096646
OS2Version: 0
OS2_WeightWidthSlopeOnly: 0
OS2_UseTypoMetrics: 0
CreationTime: 1344259763
ModificationTime: 1355654160
OS2TypoAscent: 0
OS2TypoAOffset: 1
OS2TypoDescent: 0
OS2TypoDOffset: 1
OS2TypoLinegap: 0
OS2WinAscent: 0
OS2WinAOffset: 1
OS2WinDescent: 0
OS2WinDOffset: 1
HheadAscent: 0
HheadAOffset: 1
HheadDescent: 0
HheadDOffset: 1
OS2Vendor: 'PfEd'
DEI: 91125
Encoding: Custom
UnicodeInterp: none
NameList: Adobe Glyph List
DisplaySize: -24
AntiAlias: 1
FitToEm: 1
WinInfo: 0 33 16
BeginPrivate: 10
BlueValues 17 [ -24 0 683 705 ]
OtherBlues 13 [ -143 -131 ]
BlueScale 8 0.039625
BlueShift 1 7
BlueFuzz 1 1
StdHW 6 [ 56 ]
StdVW 6 [ 56 ]
ForceBold 5 false
StemSnapH 9 [ 56 78 ]
StemSnapV 9 [ 56 78 ]
EndPrivate
BeginChars: 256 26

StartChar: A
Encoding: 65 65 0
Width: 1113
Flags: MW
HStem: -57 108<176 269> 158 69<544 783 544 795> 708 20
LayerCount: 2
Fore
SplineSet
795 158 m 1
 475 158 l 2
 466 158 464 158 454 159 c 1
 352 26 275 -57 210 -57 c 0
 142 -57 90 2 90 33 c 0
 90 57 101 81 105 88 c 0
 118 114 126 116 138 120 c 1
 144 115 l 1
 144 113 147 108 148 107 c 0
 150 104 154 96 156 94 c 0
 192 51 243 51 244 51 c 0
 294 51 363 128 471 271 c 0
 580 415 667 557 719 660 c 1
 740 682 l 1
 759 708 799 729 823 729 c 0
 838 729 838 722 839 693 c 0
 843 591 878 174 944 55 c 0
 954 37 978 36 979 36 c 0
 983 36 985 36 997 43 c 0
 1004 47 1021 55 1036 55 c 0
 1051 55 1052 46 1052 44 c 0
 1052 15 967 -33 908 -33 c 0
 856 -33 844 0 833 28 c 0
 814 76 804 117 795 158 c 1
544 227 m 2
 783 227 l 1
 759 375 747 500 741 599 c 1
 671 467 591 341 502 221 c 1
 514 227 538 227 544 227 c 2
EndSplineSet
EndChar

StartChar: B
Encoding: 66 66 1
Width: 919
Flags: MW
HStem: -22 69<456.5 494 456.5 524.5> 640 69<563 752.5>
VStem: 727 101<165.5 250>
LayerCount: 2
Fore
SplineSet
637 413 m 1
 715 404 828 359 828 243 c 0
 828 88 641 -22 408 -22 c 0
 384 -22 343 -22 292 -5 c 0
 274 2 209 30 209 45 c 0
 209 68 263 103 294 103 c 0
 301 103 302 102 312 96 c 0
 371 55 433 47 480 47 c 0
 508 47 588 50 648 74 c 0
 686 89 727 120 727 197 c 0
 727 303 616 348 505 348 c 0
 479 348 448 344 439 343 c 0
 435 342 429 341 426 341 c 0
 417 341 410 345 410 353 c 0
 410 362 420 376 440 390 c 0
 455 400 464 403 495 414 c 0
 750 499 750 519 750 556 c 0
 750 610 697 640 638 640 c 0
 488 640 339 459 280 236 c 0
 243 93 186 17 182 12 c 0
 172 2 137 -22 111 -22 c 0
 104 -22 95 -20 95 -10 c 0
 95 -6 96 -4 102 7 c 0
 157 102 172 152 200 282 c 1
 224 388 245 516 255 618 c 1
 217 599 205 593 190 593 c 0
 177 593 174 600 174 605 c 0
 174 611 181 630 223 652 c 0
 231 657 272 677 296 689 c 0
 315 698 328 705 343 705 c 0
 348 705 360 704 360 693 c 0
 360 690 351 600 335 504 c 1
 489 683 651 709 710 709 c 0
 795 709 851 664 851 602 c 0
 851 537 797 484 637 413 c 1
EndSplineSet
EndChar

StartChar: C
Encoding: 67 67 2
Width: 782
Flags: MW
HStem: -24 69<342 371> 636 69<531 545.5>
VStem: 80 101<210 280.5> 601 101<563.5 666.5>
LayerCount: 2
Fore
SplineSet
691 160 m 0
 691 136 610 73 570 49 c 0
 487 -2 407 -24 335 -24 c 0
 187 -24 80 78 80 234 c 0
 80 327 123 465 238 568 c 0
 337 656 467 705 595 705 c 0
 622 705 702 705 702 628 c 0
 702 607 696 588 679 553 c 0
 663 522 654 504 635 482 c 0
 626 471 591 444 561 444 c 0
 556 444 544 444 544 455 c 0
 544 460 544 462 556 479 c 0
 559 483 601 546 601 581 c 0
 601 625 569 636 522 636 c 0
 241 636 181 369 181 281 c 0
 181 139 276 45 408 45 c 0
 453 45 525 58 594 126 c 0
 616 149 642 171 674 171 c 0
 681 171 691 169 691 160 c 0
EndSplineSet
EndChar

StartChar: D
Encoding: 68 68 3
Width: 1083
Flags: MW
HStem: 0 69<349 359> 614 69<493 540 493 493>
VStem: 921 101<372 488.5>
LayerCount: 2
Fore
SplineSet
359 0 m 2
 219 0 l 2
 202 0 191 0 191 12 c 0
 191 26 220 57 265 68 c 1
 379 327 389 525 394 614 c 1
 208 607 197 574 182 531 c 1
 172 499 120 475 98 475 c 0
 85 475 82 481 82 488 c 0
 82 493 92 539 141 583 c 0
 253 683 403 683 543 683 c 0
 653 683 748 683 844 654 c 0
 962 618 1022 548 1022 446 c 0
 1022 166 670 0 359 0 c 2
540 614 m 2
 493 614 l 1
 476 407 430 250 349 69 c 1
 423 69 l 2
 491 69 656 81 777 152 c 0
 902 226 921 344 921 400 c 0
 921 577 712 614 540 614 c 2
EndSplineSet
EndChar

StartChar: E
Encoding: 69 69 4
Width: 770
Flags: MW
HStem: -22 69<259 444> 341 69<454 533> 636 69<495 516>
VStem: 93 101<103 125.5> 213 101<465.5 526.5 465.5 529.5> 626 101<600.5 601.5>
LayerCount: 2
Fore
SplineSet
313 361 m 1
 265 376 213 407 213 470 c 0
 213 589 376 705 579 705 c 0
 678 705 727 684 727 631 c 0
 727 570 660 534 629 534 c 0
 614 534 613 543 613 545 c 0
 613 550 617 557 618 559 c 0
 621 565 626 572 626 585 c 0
 626 618 597 625 583 628 c 0
 555 634 525 636 507 636 c 0
 483 636 423 633 377 613 c 0
 320 588 314 536 314 517 c 0
 314 414 496 411 522 410 c 0
 544 410 552 410 552 398 c 0
 552 383 527 365 522 361 c 0
 494 342 474 341 454 341 c 0
 267 336 194 223 194 153 c 0
 194 53 356 47 388 47 c 0
 500 47 565 110 597 140 c 0
 611 154 642 171 663 171 c 0
 670 171 680 169 680 160 c 0
 680 136 598 74 546 44 c 0
 458 -7 380 -22 316 -22 c 0
 202 -22 93 14 93 106 c 0
 93 145 117 209 171 263 c 0
 220 312 263 335 313 361 c 1
EndSplineSet
EndChar

StartChar: F
Encoding: 70 70 5
Width: 988
Flags: W
HStem: -38 70<244.5 249> -38 141<141 249> 285 81<785 804.5> 296 70<557 775 529 867> 581 102<963.5 964 462 981> 614 69<427 949 462 539 632 862 632 632>
VStem: 951 102<593 664.5 598 664.5>
LayerCount: 2
Fore
SplineSet
1053 644 m 0x9a
 1053 611 996 581 966 581 c 0
 961 581 956 582 953 586 c 1
 951 593 l 1
 951 598 l 2
 951 614 877 614 862 614 c 2x96
 632 614 l 1
 616 539 588 440 557 366 c 1
 867 366 l 2
 876 366 879 360 879 354 c 0
 879 314 821 285 788 285 c 0x56
 782 285 775 290 775 296 c 1xa6
 529 296 l 1
 479 185 428 83 398 51 c 0
 346 -6 277 -38 221 -38 c 0
 124 -38 72 31 72 46 c 0
 72 64 119 103 163 103 c 0
 178 103 193 32 296 32 c 0x96
 299 32 303 33 306 33 c 1
 324 42 400 185 457 330 c 0
 499 437 527 551 539 614 c 1
 436 614 l 2
 418 614 357 615 339 611 c 1
 316 592 294 580 264 580 c 0
 260 580 255 585 255 589 c 0
 255 605 267 619 278 629 c 0
 334 683 426 683 462 683 c 2
 949 683 l 2
 979 683 1053 685 1053 644 c 0x9a
EndSplineSet
EndChar

StartChar: G
Encoding: 71 71 6
Width: 850
Flags: MW
HStem: -119 69<320.5 442.5> 68 69<361.5 394> 636 69<526 560.5>
VStem: 110 101<283.5 371.5 283.5 397> 679 101<568 656.5>
LayerCount: 2
Fore
SplineSet
606 155 m 1
 523 98 436 68 352 68 c 0
 210 68 110 162 110 296 c 0
 110 498 315 705 615 705 c 0
 729 705 780 684 780 629 c 0
 780 600 760 566 725 526 c 0
 711 511 671 466 630 466 c 0
 624 466 613 466 613 477 c 0
 613 487 624 498 631 505 c 0
 637 511 679 553 679 583 c 0
 679 616 651 622 632 627 c 0
 615 631 578 636 543 636 c 0
 509 636 389 633 312 565 c 0
 237 500 211 401 211 342 c 0
 211 225 298 137 425 137 c 0
 458 137 516 146 566 183 c 0
 631 232 649 289 659 323 c 0
 667 347 716 376 742 376 c 0
 751 376 759 373 759 364 c 0
 759 363 710 129 599 3 c 0
 548 -54 465 -119 350 -119 c 0
 291 -119 229 -110 169 -90 c 0
 148 -83 141 -80 141 -71 c 0
 141 -51 192 -14 225 -14 c 0
 230 -14 232 -14 246 -19 c 0
 327 -48 406 -50 423 -50 c 0
 462 -50 489 -44 533 15 c 0
 540 25 576 73 606 155 c 1
EndSplineSet
EndChar

StartChar: H
Encoding: 72 72 7
Width: 1194
Flags: MW
HStem: -55 69 341 69 614 69<322 379>
VStem: 783 101
LayerCount: 2
Fore
SplineSet
482 342 m 1
 825 342 l 1
 881 521 928 627 928 628 c 0
 944 664 994 683 1012 683 c 0
 1021 683 1029 680 1029 671 c 0
 1029 669 1029 667 1019 644 c 0
 981 552 944 454 906 315 c 0
 863 156 863 66 863 65 c 0
 863 43 875 13 916 13 c 0
 940 13 964 16 988 22 c 1
 1001 63 1057 81 1074 81 c 0
 1084 81 1089 75 1089 69 c 0
 1089 40 1023 -56 843 -56 c 0
 791 -56 762 -24 762 19 c 0
 762 31 763 118 808 282 c 1
 793 273 774 273 762 273 c 2
 461 273 l 1
 430 168 380 45 366 13 c 0
 351 -21 302 -41 282 -41 c 0
 275 -41 265 -39 265 -29 c 0
 265 -27 265 -25 274 -5 c 0
 327 119 363 235 373 273 c 1
 286 273 l 2
 269 273 257 273 257 284 c 0
 257 306 307 341 343 342 c 1
 392 342 l 1
 408 400 414 439 418 465 c 0
 426 512 428 557 428 560 c 0
 428 607 391 614 367 614 c 0
 250 614 209 561 184 529 c 0
 170 510 164 503 145 491 c 0
 126 480 108 475 98 475 c 0
 89 475 82 478 82 487 c 0
 82 503 204 683 440 683 c 0
 510 683 529 642 529 607 c 0
 529 547 512 451 482 342 c 1
EndSplineSet
EndChar

StartChar: I
Encoding: 73 73 8
Width: 819
Flags: MW
HStem: 0 69<160 249 249 263 354 532> 614 69<364.5 812 466 522 607.5 618 618 743>
LayerCount: 2
Fore
SplineSet
743 614 m 2
 618 614 l 2
 597 614 596 613 592 609 c 0
 548 558 521 452 504 382 c 0
 476 271 440 147 354 69 c 1
 596 69 l 2
 599 69 635 69 663 75 c 1
 672 112 726 137 750 137 c 0
 759 137 766 134 766 125 c 0
 766 97 702 0 532 0 c 2
 91 0 l 2
 74 0 62 0 62 11 c 0
 62 26 98 69 160 69 c 2
 249 69 l 2
 277 69 281 69 297 85 c 0
 354 146 389 285 402 335 c 0
 434 464 459 548 522 614 c 1
 402 614 l 2
 327 614 253 607 214 594 c 0
 201 589 200 588 191 565 c 0
 181 538 134 512 107 512 c 0
 102 512 91 512 91 524 c 0
 91 547 130 622 250 658 c 0
 264 663 332 683 466 683 c 2
 812 683 l 2
 830 683 840 683 840 671 c 0
 840 660 807 614 743 614 c 2
EndSplineSet
EndChar

StartChar: J
Encoding: 74 74 9
Width: 958
Flags: MW
HStem: -119 69<364 405.5> 614 69<675.5 1036 771 863>
VStem: 111 101<37 60.5>
LayerCount: 2
Fore
SplineSet
771 683 m 2
 1036 683 l 2
 1053 683 1065 683 1065 672 c 0
 1065 656 1030 617 973 614 c 0
 936 612 906 606 853 514 c 0
 817 450 783 352 748 212 c 0
 726 126 718 93 669 36 c 0
 601 -42 474 -119 337 -119 c 0
 218 -119 111 -64 111 38 c 0
 111 83 123 93 138 106 c 1
 153 117 181 132 201 132 c 0
 205 132 216 130 216 119 c 0
 216 114 212 99 212 84 c 0
 212 -10 318 -50 410 -50 c 0
 438 -50 498 -45 551 -6 c 0
 615 41 629 96 642 148 c 0
 704 392 751 522 863 614 c 1
 707 614 l 2
 644 614 590 599 557 583 c 0
 489 550 475 507 464 473 c 0
 455 446 407 419 380 419 c 0
 364 419 364 428 364 430 c 0
 364 433 370 478 419 534 c 0
 489 615 630 683 771 683 c 2
EndSplineSet
EndChar

StartChar: K
Encoding: 75 75 10
Width: 1055
Flags: MW
HStem: -22 57 586 119<868 879.5>
VStem: 327 78<391.5 461> 855 78<621 629.5>
LayerCount: 2
Fore
SplineSet
259 620 m 1
 215 598 205 593 190 593 c 0
 177 593 174 600 174 605 c 0
 174 628 209 645 274 678 c 0
 318 700 328 705 343 705 c 0
 360 705 360 700 360 670 c 0
 360 516 317 366 267 220 c 0
 229 110 195 32 192 26 c 0
 180 4 136 -22 111 -22 c 0
 104 -22 95 -20 95 -10 c 0
 95 -8 95 -6 103 12 c 0
 124 63 178 194 222 365 c 0
 254 486 256 549 259 620 c 1
948 144 m 1
 954 142 959 136 959 129 c 0
 959 91 886 -22 687 -22 c 0
 666 -22 632 -22 566 34 c 0
 452 131 327 328 327 402 c 0
 327 520 734 705 854 705 c 0
 905 705 933 675 933 642 c 0
 933 600 888 586 873 586 c 0
 863 586 854 590 854 600 c 0
 854 603 855 606 855 612 c 0
 855 647 809 647 808 647 c 0
 731 647 405 495 405 432 c 0
 405 351 613 36 733 36 c 0
 765 36 797 40 828 51 c 0
 868 65 874 81 882 106 c 0
 886 117 905 143 948 144 c 1
EndSplineSet
EndChar

StartChar: L
Encoding: 76 76 11
Width: 964
Flags: MW
HStem: -22 73 632 73
VStem: 682 111<539.5 627.5>
LayerCount: 2
Fore
SplineSet
277 101 m 1
 290 103 302 103 315 103 c 0
 380 103 452 89 523 75 c 0
 551 69 637 52 698 52 c 0
 741 52 748 61 758 90 c 0
 769 122 827 152 855 152 c 0
 860 152 868 148 868 141 c 0
 868 95 761 -22 612 -22 c 0
 555 -22 495 -12 423 2 c 0
 376 12 290 29 229 29 c 0
 208 29 206 28 195 19 c 0
 169 -1 136 -22 110 -22 c 0
 102 -22 95 -19 95 -11 c 0
 95 5 131 32 132 33 c 0
 154 49 176 66 205 117 c 0
 232 164 241 199 251 237 c 0
 282 356 310 412 332 457 c 0
 416 623 559 705 674 705 c 0
 752 705 793 654 793 601 c 0
 793 565 781 553 761 538 c 0
 723 509 694 509 692 509 c 0
 687 509 679 513 679 520 c 0
 679 525 682 532 682 547 c 0
 682 599 643 631 588 631 c 0
 554 631 520 624 463 537 c 1
 403 443 374 332 357 270 c 0
 339 202 314 154 277 101 c 1
EndSplineSet
EndChar

StartChar: M
Encoding: 77 77 12
Width: 1567
Flags: MW
HStem: -57 108<195 247> 685 20<534 554 1385 1393.5>
VStem: 1238 101<112.5 240>
LayerCount: 2
Fore
SplineSet
1276 510 m 1
 973 218 l 2
 904 151 767 34 754 34 c 0
 733 34 669 140 654 166 c 0
 616 233 543 420 504 543 c 1
 466 357 393 188 355 110 c 1
 317 29 264 -57 203 -57 c 0
 187 -57 158 -53 131 -42 c 0
 95 -26 90 -15 90 -1 c 0
 90 37 115 85 134 85 c 0
 137 85 139 85 146 80 c 0
 183 55 231 51 237 51 c 0
 257 51 284 51 356 222 c 0
 427 393 454 506 471 651 c 0
 474 678 521 705 547 705 c 0
 561 705 563 698 567 685 c 0
 600 572 689 286 787 147 c 1
 866 207 968 299 1048 378 c 2
 1368 691 l 2
 1381 704 1382 705 1388 705 c 0
 1399 705 1401 687 1401 683 c 0
 1401 670 1398 659 1393 645 c 0
 1382 607 1339 308 1339 172 c 0
 1339 165 1339 129 1345 88 c 0
 1349 59 1352 40 1383 38 c 1
 1397 46 1417 55 1432 55 c 0
 1436 55 1448 54 1448 43 c 0
 1448 17 1367 -31 1311 -31 c 0
 1279 -31 1254 -16 1247 18 c 0
 1240 56 1238 100 1238 125 c 0
 1238 140 1242 289 1276 510 c 1
EndSplineSet
EndChar

StartChar: N
Encoding: 78 78 13
Width: 1126
Flags: MW
HStem: -57 108<170.5 172.5> 683 108<1147.5 1187.5>
LayerCount: 2
Fore
SplineSet
454 699 m 1
 472 659 l 2
 520 550 577 437 608 379 c 0
 678 249 736 145 809 64 c 1
 839 186 l 2
 886 379 938 560 965 633 c 1
 992 703 1025 791 1207 791 c 0
 1230 791 1237 791 1237 767 c 0
 1237 746 1226 718 1217 704 c 0
 1203 683 1199 683 1176 683 c 0
 1119 683 1058 676 1016 639 c 1
 993 589 925 364 847 18 c 1
 846 17 l 1
 845 16 l 1
 831 -14 793 -32 771 -32 c 0
 766 -32 761 -32 756 -28 c 0
 722 5 693 42 665 80 c 0
 569 211 430 503 405 557 c 1
 376 372 324 213 284 113 c 0
 257 46 209 -57 136 -57 c 0
 130 -57 100 -56 66 -42 c 1
 21 -25 21 -11 21 2 c 0
 21 17 28 41 36 56 c 0
 50 82 56 82 71 85 c 1
 111 52 170 51 171 51 c 0
 202 51 219 79 231 106 c 1
 251 147 344 379 363 637 c 0
 364 658 365 667 386 684 c 1
 402 695 423 705 439 705 c 0
 444 705 448 705 454 699 c 1
EndSplineSet
EndChar

StartChar: O
Encoding: 79 79 14
Width: 1089
Flags: MW
HStem: -22 69<428.5 569.5> 636 69<659 760>
VStem: 122 101<239 331> 909 101<313.5 471.5>
LayerCount: 2
Fore
SplineSet
1010 452 m 0
 1010 175 695 -22 444 -22 c 0
 252 -22 122 101 122 269 c 0
 122 393 191 498 249 557 c 0
 367 675 490 705 502 705 c 0
 511 705 519 702 519 693 c 0
 519 672 483 650 443 636 c 0
 316 591 223 453 223 315 c 0
 223 163 340 47 517 47 c 0
 720 47 909 194 909 405 c 0
 909 538 824 636 696 636 c 0
 612 636 550 571 502 482 c 0
 485 451 440 431 420 431 c 0
 414 431 403 432 403 442 c 0
 403 469 549 705 769 705 c 0
 913 705 1010 601 1010 452 c 0
EndSplineSet
EndChar

StartChar: P
Encoding: 80 80 15
Width: 997
Flags: MW
HStem: -56 21 614 69<492 577 492 492>
VStem: 876 101<467 546>
LayerCount: 2
Fore
SplineSet
577 614 m 2
 492 614 l 1
 485 529 470 433 449 348 c 0
 398 143 330 3 325 -8 c 0
 314 -29 270 -57 241 -57 c 0
 234 -57 227 -53 227 -45 c 0
 227 -43 227 -41 236 -22 c 0
 382 307 392 564 394 614 c 1
 208 607 197 574 182 531 c 1
 172 499 120 475 98 475 c 0
 85 475 82 481 82 488 c 0
 82 489 90 559 188 618 c 0
 297 683 405 683 562 683 c 0
 683 683 748 683 819 667 c 0
 908 647 977 606 977 525 c 0
 977 360 743 205 477 205 c 0
 459 205 449 205 449 217 c 0
 449 239 503 273 531 274 c 0
 571 275 660 276 747 311 c 0
 868 359 876 456 876 478 c 0
 876 614 627 614 577 614 c 2
EndSplineSet
EndChar

StartChar: Q
Encoding: 81 81 16
Width: 1131
Flags: MW
HStem: -131 69<813 867> 102 69<425 471.5> 636 69<570 708>
VStem: 178 101<297.5 401.5> 897 101<336 462.5>
LayerCount: 2
Fore
SplineSet
552 -2 m 1
 654 -31 767 -62 859 -62 c 0
 926 -62 933 -42 940 -23 c 0
 955 17 1009 35 1027 35 c 0
 1033 35 1042 31 1042 23 c 0
 1042 -18 947 -131 787 -131 c 0
 694 -131 606 -108 518 -84 c 0
 405 -53 337 -36 243 -34 c 0
 238 -34 228 -33 228 -22 c 0
 228 -7 267 35 321 35 c 0
 467 36 602 47 722 117 c 0
 825 177 897 275 897 394 c 0
 897 531 789 636 627 636 c 0
 420 636 279 486 279 347 c 0
 279 248 362 171 488 171 c 0
 514 171 565 175 624 197 c 0
 634 201 643 205 654 205 c 0
 660 205 671 205 671 193 c 0
 671 151 528 102 415 102 c 0
 274 102 178 187 178 301 c 0
 178 502 441 705 699 705 c 0
 881 705 998 590 998 440 c 0
 998 232 789 64 552 -2 c 1
EndSplineSet
EndChar

StartChar: R
Encoding: 82 82 17
Width: 1196
Flags: MW
HStem: -22 69<898 922.5> 614 69<494 599 492 690.5>
VStem: 872 101<499 539.5>
LayerCount: 2
Fore
SplineSet
599 614 m 2
 492 614 l 1
 475 321 350 60 333 26 c 0
 322 4 278 -22 252 -22 c 0
 245 -22 236 -20 236 -10 c 0
 236 -8 236 -6 242 7 c 0
 358 262 386 456 394 614 c 1
 208 607 197 574 182 531 c 1
 172 499 120 475 98 475 c 0
 85 475 82 481 82 488 c 0
 82 497 103 586 234 642 c 0
 331 683 415 683 573 683 c 0
 808 683 973 683 973 555 c 0
 973 443 856 336 694 294 c 1
 719 267 739 240 773 189 c 0
 832 102 872 47 924 47 c 0
 933 47 988 47 1040 98 c 1
 1072 131 1105 137 1115 137 c 0
 1119 137 1131 137 1131 125 c 0
 1131 101 994 -22 851 -22 c 0
 787 -22 745 27 676 129 c 0
 586 264 563 268 524 274 c 0
 521 274 514 278 514 284 c 0
 514 299 535 316 544 322 c 0
 574 341 587 342 616 342 c 0
 623 342 721 344 796 382 c 0
 856 413 872 477 872 509 c 0
 872 570 829 614 599 614 c 2
EndSplineSet
EndChar

StartChar: S
Encoding: 83 83 18
Width: 868
Flags: MW
HStem: -22 69<366 435 366 482.5> 636 69<545 556.5>
VStem: 85 101<143.5 172.5> 273 101<487 538 487 541> 673 101<178.5 233>
LayerCount: 2
Fore
SplineSet
774 234 m 0
 774 106 612 -22 353 -22 c 0
 324 -22 254 -22 180 17 c 0
 112 53 85 87 85 132 c 0
 85 213 180 274 233 274 c 0
 242 274 251 272 251 262 c 0
 251 249 230 229 205 217 c 1
 195 211 186 207 186 179 c 0
 186 108 306 47 426 47 c 0
 444 47 531 49 595 74 c 0
 671 104 673 170 673 187 c 0
 673 279 566 316 465 338 c 1
 409 349 273 378 273 485 c 0
 273 597 422 705 621 705 c 0
 641 705 697 705 759 684 c 0
 788 675 832 660 832 597 c 0
 832 562 821 550 803 537 c 0
 793 529 766 512 744 512 c 0
 737 512 728 514 728 524 c 0
 728 527 731 538 731 550 c 0
 731 600 698 610 667 619 c 0
 613 635 565 636 548 636 c 0
 542 636 480 636 429 617 c 0
 376 597 374 545 374 531 c 0
 374 443 491 418 542 407 c 0
 651 384 774 341 774 234 c 0
EndSplineSet
EndChar

StartChar: T
Encoding: 84 84 19
Width: 822
Flags: MW
HStem: 0 73 610 73 697 20<1057.5 1072>
LayerCount: 2
Fore
SplineSet
433 142 m 2
 541 574 l 2
 543 584 547 599 560 609 c 1
 319 609 l 2
 265 609 231 595 210 543 c 0
 203 525 199 514 167 495 c 0
 135 475 114 475 111 475 c 0
 102 475 98 482 98 486 c 0
 98 497 134 612 313 671 c 0
 351 683 380 683 450 683 c 2
 930 683 l 2
 933 683 994 683 999 686 c 0
 1017 698 1045 717 1070 717 c 0
 1074 717 1085 717 1085 706 c 0
 1085 692 1061 655 999 629 c 1
 985 622 953 609 871 609 c 2
 647 609 l 1
 542 186 l 2
 519 94 471 -6 460 -21 c 0
 447 -39 402 -68 373 -68 c 0
 369 -68 357 -68 357 -57 c 0
 357 -54 357 -52 367 -34 c 0
 406 43 427 116 433 142 c 2
EndSplineSet
EndChar

StartChar: U
Encoding: 85 85 20
Width: 873
Flags: MW
HStem: -22 69<200.5 224> 614 69<156 247>
VStem: 38 101<146 167.5> 186 101<571 656> 606 101<3 140>
LayerCount: 2
Fore
SplineSet
669 321 m 1
 471 91 284 -22 164 -22 c 0
 82 -22 38 40 38 131 c 0
 38 204 66 276 125 410 c 0
 163 497 186 554 186 588 c 0
 186 609 178 614 163 614 c 0
 149 614 121 611 87 593 c 0
 79 588 61 580 46 580 c 0
 41 580 30 581 30 592 c 0
 30 624 145 683 235 683 c 0
 259 683 287 678 287 634 c 0
 287 590 254 515 218 434 c 0
 168 319 139 247 139 178 c 0
 139 114 164 47 237 47 c 0
 372 47 683 384 752 566 c 0
 761 591 777 633 782 639 c 0
 796 661 837 683 860 683 c 0
 870 683 877 680 877 671 c 0
 877 652 858 611 844 582 c 1
 835 561 707 209 707 71 c 0
 707 42 727 40 729 40 c 0
 732 40 733 40 740 44 c 0
 751 49 766 55 777 55 c 0
 786 55 794 52 794 43 c 0
 794 17 714 -30 662 -30 c 0
 638 -30 606 -19 606 25 c 0
 606 45 608 94 628 173 c 0
 641 223 654 272 669 321 c 1
EndSplineSet
EndChar

StartChar: V
Encoding: 86 86 21
Width: 898
Flags: MW
HStem: -53 21 663 20<153.5 245 733.5 785>
VStem: 327 92<119 150> 827 57
LayerCount: 2
Fore
SplineSet
709 575 m 1
 700 583 700 596 700 597 c 0
 700 614 714 683 753 683 c 0
 817 683 884 639 884 555 c 0
 884 486 842 359 700 216 c 0
 542 58 348 -54 335 -54 c 0
 326 -54 322 -42 322 -31 c 0
 322 -13 326 11 326 30 c 0
 326 52 327 72 327 94 c 0
 327 206 316 337 286 435 c 0
 233 608 150 615 112 618 c 0
 107 618 94 619 94 631 c 0
 94 647 130 683 177 683 c 0
 313 683 365 529 383 464 c 0
 419 332 419 175 419 134 c 0
 419 104 419 102 418 85 c 1
 672 240 826 431 826 492 c 0
 826 528 791 574 709 575 c 1
EndSplineSet
EndChar

StartChar: W
Encoding: 87 87 22
Width: 1367
Flags: MW
HStem: -54 21<280.5 291.5 935.5 950.5> 663 20<153 217.5 804 821.5 1234 1279>
VStem: 289 92<234 249> 1297 57
LayerCount: 2
Fore
SplineSet
1209 575 m 1
 1203 580 1200 588 1200 596 c 0
 1200 618 1216 683 1252 683 c 0
 1306 683 1354 636 1354 561 c 0
 1354 446 1262 292 1139 144 c 0
 1084 78 960 -54 941 -54 c 0
 930 -54 928 -37 926 -16 c 0
 910 174 857 386 774 563 c 1
 699 440 591 264 398 56 c 0
 342 -5 297 -54 286 -54 c 0
 275 -54 273 -40 273 -30 c 0
 273 -26 273 -25 275 -14 c 0
 281 27 289 126 289 210 c 0
 289 288 283 383 260 464 c 0
 223 596 159 617 103 618 c 1
 97 620 94 625 94 631 c 0
 94 647 130 683 176 683 c 0
 259 683 315 620 346 530 c 0
 381 426 381 288 381 250 c 0
 381 218 378 166 376 121 c 1
 577 333 685 511 749 616 c 1
 747 619 743 627 743 630 c 0
 743 653 790 683 818 683 c 0
 825 683 831 681 835 675 c 0
 937 475 989 265 1011 95 c 1
 1184 264 1296 441 1296 497 c 0
 1296 520 1284 573 1209 575 c 1
EndSplineSet
EndChar

StartChar: X
Encoding: 88 88 23
Width: 996
Flags: MW
HStem: 0 69<784 794.5> 614 69<412.5 423.5>
VStem: 115 101<92.5 100> 928 101<564.5 640>
LayerCount: 2
Fore
SplineSet
808 69 m 1
 832 98 867 110 884 110 c 0
 889 110 901 110 901 99 c 0
 901 87 868 0 721 0 c 0
 687 0 635 0 604 82 c 0
 589 122 584 176 554 308 c 1
 424 247 l 1
 367 219 313 192 274 169 c 0
 219 135 216 126 216 110 c 0
 216 75 245 71 257 69 c 0
 264 68 270 65 270 58 c 0
 270 37 222 0 181 0 c 0
 149 0 115 21 115 63 c 0
 115 137 253 210 317 244 c 0
 406 291 493 329 545 355 c 1
 515 506 l 1
 491 614 448 614 399 614 c 1
 375 585 340 573 323 573 c 0
 318 573 306 573 306 584 c 0
 306 597 339 683 486 683 c 0
 527 683 589 683 617 551 c 0
 623 518 633 470 647 402 c 1
 707 428 841 493 895 530 c 0
 922 549 928 556 928 573 c 0
 928 609 898 613 890 614 c 0
 882 615 874 616 874 626 c 0
 874 646 923 683 962 683 c 0
 998 683 1029 660 1029 620 c 0
 1029 577 990 532 877 466 c 0
 793 418 657 355 656 355 c 1
 677 260 691 174 702 141 c 0
 728 69 760 69 808 69 c 1
EndSplineSet
EndChar

StartChar: Y
Encoding: 89 89 24
Width: 929
Flags: MW
HStem: -143 92<280 294.5> 619 64
VStem: 864 53
LayerCount: 2
Fore
SplineSet
750 591 m 1
 741 597 741 613 741 616 c 0
 741 631 752 683 787 683 c 0
 846 683 917 643 917 552 c 0
 917 479 853 308 698 149 c 0
 525 -28 331 -143 258 -143 c 0
 143 -143 95 -50 95 -21 c 0
 95 3 115 46 135 46 c 0
 142 46 144 41 149 32 c 0
 188 -51 275 -51 285 -51 c 0
 330 -51 424 8 457 29 c 1
 453 143 439 279 399 405 c 0
 375 480 315 618 194 618 c 0
 187 618 183 618 175 610 c 0
 156 593 131 584 117 584 c 0
 100 584 100 595 100 596 c 0
 100 618 174 683 258 683 c 0
 497 683 540 258 547 123 c 0
 548 98 548 97 549 97 c 0
 552 97 638 163 716 251 c 0
 847 398 863 499 863 509 c 0
 863 540 835 590 750 591 c 1
EndSplineSet
EndChar

StartChar: Z
Encoding: 90 90 25
Width: 991
Flags: MW
HStem: 0 73 344 57 610 73
LayerCount: 2
Fore
SplineSet
470 401 m 2
 608 401 l 1
 684 465 705 483 721 498 c 0
 745 519 800 568 819 588 c 1
 810 587 795 587 786 587 c 0
 742 587 692 592 648 597 c 0
 558 608 519 609 501 609 c 0
 489 609 449 609 410 597 c 0
 392 592 382 588 371 557 c 0
 357 516 295 492 275 492 c 0
 267 492 260 495 260 502 c 0
 260 549 365 683 587 683 c 0
 636 683 703 676 730 673 c 0
 822 661 864 661 872 661 c 0
 894 661 901 662 921 672 c 0
 937 680 952 683 958 683 c 0
 965 683 973 681 973 672 c 0
 973 662 961 650 959 648 c 0
 884 574 784 485 708 421 c 0
 688 403 687 403 687 402 c 0
 687 400 697 400 701 400 c 0
 718 400 782 399 782 366 c 0
 782 352 760 322 715 321 c 1
 714 322 711 323 710 324 c 0
 709 326 708 328 706 330 c 0
 704 331 701 335 699 336 c 0
 685 341 654 342 611 343 c 1
 538 283 380 166 279 94 c 1
 294 96 296 96 324 96 c 0
 393 96 500 88 546 84 c 0
 599 80 681 74 730 74 c 0
 757 74 766 74 782 90 c 0
 802 111 812 136 817 152 c 0
 821 165 826 179 857 199 c 0
 872 208 896 220 913 220 c 0
 917 220 929 220 929 210 c 0
 929 166 828 0 644 0 c 0
 577 0 457 9 399 14 c 0
 304 22 247 22 238 22 c 0
 218 22 187 22 148 8 c 0
 138 4 126 0 116 0 c 0
 108 0 101 3 101 10 c 0
 101 27 125 44 156 65 c 0
 284 152 466 287 534 343 c 1
 408 343 l 1
 402 345 398 351 398 357 c 0
 398 363 409 401 470 401 c 2
EndSplineSet
EndChar
